<svg width="36" height="36" viewBox="0 0 36 36" fill="none" xmlns="http://www.w3.org/2000/svg">
<path d="M9 30V15H27V16.5C28.05 16.5 29.055 16.65 30 16.935V15C30 13.35 28.65 12 27 12H25.5V9C25.5 4.86 22.14 1.5 18 1.5C13.86 1.5 10.5 4.86 10.5 9V12H9C7.35 12 6 13.35 6 15V30C6 31.65 7.35 33 9 33H18.39C17.76 32.1 17.265 31.08 16.935 30H9ZM13.5 9C13.5 6.51 15.51 4.5 18 4.5C20.49 4.5 22.5 6.51 22.5 9V12H13.5V9Z" fill="black"/>
<path d="M27 19.5C22.86 19.5 19.5 22.86 19.5 27C19.5 31.14 22.86 34.5 27 34.5C31.14 34.5 34.5 31.14 34.5 27C34.5 22.86 31.14 19.5 27 19.5ZM27 22.5C28.245 22.5 29.25 23.505 29.25 24.75C29.25 25.995 28.245 27 27 27C25.755 27 24.75 25.995 24.75 24.75C24.75 23.505 25.755 22.5 27 22.5ZM27 31.5C25.455 31.5 24.09 30.72 23.28 29.52C24.375 28.89 25.635 28.5 27 28.5C28.365 28.5 29.625 28.89 30.72 29.52C29.91 30.72 28.545 31.5 27 31.5Z" fill="black"/>
</svg>
