<svg width="24" height="24" viewBox="0 0 24 24" fill="none" xmlns="http://www.w3.org/2000/svg">
<path d="M10.4995 16.5005C11.2875 16.5005 12.0677 16.3453 12.7956 16.0438C13.5236 15.7423 14.185 15.3003 14.7422 14.7431C15.2993 14.186 15.7413 13.5246 16.0428 12.7966C16.3443 12.0687 16.4995 11.2884 16.4995 10.5005C16.4995 9.71257 16.3443 8.93236 16.0428 8.2044C15.7413 7.47645 15.2993 6.81501 14.7422 6.25786C14.185 5.70071 13.5236 5.25875 12.7956 4.95723C12.0677 4.6557 11.2875 4.5005 10.4995 4.5005C8.90823 4.5005 7.3821 5.13264 6.25689 6.25786C5.13167 7.38308 4.49953 8.9092 4.49953 10.5005C4.49953 12.0918 5.13167 13.6179 6.25689 14.7431C7.3821 15.8684 8.90823 16.5005 10.4995 16.5005ZM16.8195 15.4065L20.3995 18.9865C20.495 19.0788 20.5711 19.1892 20.6234 19.3113C20.6757 19.4333 20.7032 19.5645 20.7043 19.6973C20.7053 19.8301 20.6799 19.9618 20.6296 20.0846C20.5792 20.2075 20.5049 20.3191 20.4109 20.4129C20.3169 20.5067 20.2052 20.5809 20.0823 20.6311C19.9594 20.6813 19.8277 20.7065 19.6949 20.7052C19.5621 20.704 19.4309 20.6763 19.309 20.6238C19.187 20.5713 19.0767 20.4951 18.9845 20.3995L15.4045 16.8195C13.797 18.0674 11.7743 18.6557 9.74828 18.4647C7.72224 18.2737 5.84513 17.3178 4.49908 15.7916C3.15302 14.2653 2.43921 12.2834 2.50295 10.2494C2.56669 8.2154 3.4032 6.28213 4.84217 4.84315C6.28115 3.40417 8.21443 2.56767 10.2485 2.50393C12.2825 2.44019 14.2643 3.154 15.7906 4.50005C17.3168 5.84611 18.2727 7.72322 18.4637 9.74926C18.6547 11.7753 18.0664 13.798 16.8185 15.4055L16.8195 15.4065Z" fill="#697077"/>
</svg>
