<svg width="71" height="71" viewBox="0 0 71 71" fill="none" xmlns="http://www.w3.org/2000/svg">
<path d="M5.91699 62.125V56.2083C7.7906 56.2083 9.19581 55.7153 10.1326 54.7292C11.0694 53.7431 12.9184 53.25 15.6795 53.25C18.4406 53.25 20.3389 53.7431 21.3743 54.7292C22.4097 55.7153 23.8149 56.2083 25.5899 56.2083C27.3649 56.2083 28.7701 55.7153 29.8055 54.7292C30.841 53.7431 32.7392 53.25 35.5003 53.25C38.2614 53.25 40.1597 53.7431 41.1951 54.7292C42.2305 55.7153 43.6357 56.2083 45.4107 56.2083C47.1857 56.2083 48.591 55.7153 49.6264 54.7292C50.6618 53.7431 52.56 53.25 55.3212 53.25C58.0823 53.25 59.9312 53.7431 60.868 54.7292C61.8048 55.7153 63.21 56.2083 65.0837 56.2083V62.125C62.1746 62.125 60.264 61.6319 59.3519 60.6458C58.4397 59.6597 57.0962 59.1667 55.3212 59.1667C53.5462 59.1667 52.1409 59.6597 51.1055 60.6458C50.0701 61.6319 48.1719 62.125 45.4107 62.125C42.6496 62.125 40.7514 61.6319 39.716 60.6458C38.6805 59.6597 37.2753 59.1667 35.5003 59.1667C33.7253 59.1667 32.3201 59.6597 31.2847 60.6458C30.2493 61.6319 28.351 62.125 25.5899 62.125C22.8288 62.125 20.9305 61.6319 19.8951 60.6458C18.8597 59.6597 17.4545 59.1667 15.6795 59.1667C13.9045 59.1667 12.5609 59.6597 11.6488 60.6458C10.7366 61.6319 8.82602 62.125 5.91699 62.125ZM5.91699 48.8125V42.8958C7.7906 42.8958 9.19581 42.4028 10.1326 41.4167C11.0694 40.4306 12.9184 39.9375 15.6795 39.9375C18.4406 39.9375 20.3512 40.4306 21.4113 41.4167C22.4713 42.4028 23.8642 42.8958 25.5899 42.8958C27.3649 42.8958 28.7701 42.4028 29.8055 41.4167C30.841 40.4306 32.7392 39.9375 35.5003 39.9375C38.2614 39.9375 40.1597 40.4306 41.1951 41.4167C42.2305 42.4028 43.6357 42.8958 45.4107 42.8958C47.1857 42.8958 48.591 42.4028 49.6264 41.4167C50.6618 40.4306 52.56 39.9375 55.3212 39.9375C58.0823 39.9375 59.9312 40.4306 60.868 41.4167C61.8048 42.4028 63.21 42.8958 65.0837 42.8958V48.8125C62.1746 48.8125 60.264 48.3194 59.3519 47.3333C58.4397 46.3472 57.0962 45.8542 55.3212 45.8542C53.5462 45.8542 52.1779 46.3472 51.2165 47.3333C50.255 48.3194 48.3198 48.8125 45.4107 48.8125C42.6003 48.8125 40.6897 48.3194 39.679 47.3333C38.6682 46.3472 37.2753 45.8542 35.5003 45.8542C33.6267 45.8542 32.2338 46.3472 31.3217 47.3333C30.4095 48.3194 28.4989 48.8125 25.5899 48.8125C22.6809 48.8125 20.7456 48.3194 19.7842 47.3333C18.8227 46.3472 17.4545 45.8542 15.6795 45.8542C13.9045 45.8542 12.5609 46.3472 11.6488 47.3333C10.7366 48.3194 8.82602 48.8125 5.91699 48.8125ZM20.4128 33.725L30.2493 23.8885L27.2909 20.9302C25.6639 19.3031 23.9382 18.1198 22.1139 17.3802C20.2896 16.6406 18.0462 16.2708 15.3837 16.2708V8.875C19.0816 8.875 22.1385 9.28177 24.5545 10.0953C26.9705 10.9089 29.3371 12.4743 31.6545 14.7917L50.5878 33.725C49.7496 34.2674 48.9361 34.6988 48.1472 35.0193C47.3583 35.3398 46.4462 35.5 45.4107 35.5C43.6357 35.5 42.2305 35.0069 41.1951 34.0208C40.1597 33.0347 38.2614 32.5417 35.5003 32.5417C32.7392 32.5417 30.841 33.0347 29.8055 34.0208C28.7701 35.0069 27.3649 35.5 25.5899 35.5C24.5545 35.5 23.6423 35.3398 22.8534 35.0193C22.0646 34.6988 21.251 34.2674 20.4128 33.725ZM49.4045 8.875C51.4753 8.875 53.2257 9.60226 54.6555 11.0568C56.0854 12.5113 56.8003 14.2493 56.8003 16.2708C56.8003 18.3417 56.0854 20.092 54.6555 21.5219C53.2257 22.9517 51.4753 23.6667 49.4045 23.6667C47.3337 23.6667 45.5833 22.9517 44.1535 21.5219C42.7236 20.092 42.0087 18.3417 42.0087 16.2708C42.0087 14.2493 42.7236 12.5113 44.1535 11.0568C45.5833 9.60226 47.3337 8.875 49.4045 8.875Z" fill="#666666"/>
</svg>
